<mxfile host="app.diagrams.net" agent="Mozilla/5.0 (Macintosh; Intel Mac OS X 10_15_7) AppleWebKit/537.36 (KHTML, like Gecko) Chrome/129.0.0.0 Safari/537.36" version="24.7.17">
  <diagram name="Page-1" id="74e2e168-ea6b-b213-b513-2b3c1d86103e">
    <mxGraphModel dx="1441" dy="665" grid="1" gridSize="10" guides="1" tooltips="1" connect="1" arrows="1" fold="1" page="1" pageScale="1" pageWidth="1100" pageHeight="850" background="none" math="0" shadow="0">
      <root>
        <mxCell id="0" />
        <mxCell id="1" parent="0" />
        <mxCell id="77e6c97f196da883-1" value="Thesis Application Flow" style="swimlane;html=1;childLayout=stackLayout;startSize=20;rounded=0;shadow=0;labelBackgroundColor=none;strokeWidth=1;fontFamily=Verdana;fontSize=8;align=center;" parent="1" vertex="1">
          <mxGeometry x="70" y="40" width="480" height="620" as="geometry" />
        </mxCell>
        <mxCell id="77e6c97f196da883-2" value="Student" style="swimlane;html=1;startSize=20;" parent="77e6c97f196da883-1" vertex="1">
          <mxGeometry y="20" width="160" height="600" as="geometry" />
        </mxCell>
        <mxCell id="FH-egheK_HizLAxa6WL1-56" value="Apply for Topic" style="rounded=1;whiteSpace=wrap;html=1;" parent="77e6c97f196da883-2" vertex="1">
          <mxGeometry x="20" y="130" width="120" height="60" as="geometry" />
        </mxCell>
        <mxCell id="77e6c97f196da883-3" value="Advisor" style="swimlane;html=1;startSize=20;" parent="77e6c97f196da883-1" vertex="1">
          <mxGeometry x="160" y="20" width="160" height="600" as="geometry" />
        </mxCell>
        <mxCell id="FH-egheK_HizLAxa6WL1-55" style="edgeStyle=orthogonalEdgeStyle;rounded=0;orthogonalLoop=1;jettySize=auto;html=1;exitX=0.5;exitY=1;exitDx=0;exitDy=0;entryX=0.5;entryY=0;entryDx=0;entryDy=0;" parent="77e6c97f196da883-3" source="FH-egheK_HizLAxa6WL1-51" target="FH-egheK_HizLAxa6WL1-54" edge="1">
          <mxGeometry relative="1" as="geometry" />
        </mxCell>
        <mxCell id="FH-egheK_HizLAxa6WL1-51" value="" style="ellipse;whiteSpace=wrap;html=1;rounded=0;shadow=0;labelBackgroundColor=none;strokeWidth=1;fontFamily=Verdana;fontSize=8;align=center;" parent="77e6c97f196da883-3" vertex="1">
          <mxGeometry x="65" y="40" width="30" height="30" as="geometry" />
        </mxCell>
        <mxCell id="FH-egheK_HizLAxa6WL1-54" value="Create Topic" style="rounded=1;whiteSpace=wrap;html=1;" parent="77e6c97f196da883-3" vertex="1">
          <mxGeometry x="20" y="130" width="120" height="60" as="geometry" />
        </mxCell>
        <mxCell id="FH-egheK_HizLAxa6WL1-62" value="" style="edgeStyle=orthogonalEdgeStyle;rounded=0;orthogonalLoop=1;jettySize=auto;html=1;" parent="77e6c97f196da883-3" source="FH-egheK_HizLAxa6WL1-58" target="FH-egheK_HizLAxa6WL1-61" edge="1">
          <mxGeometry relative="1" as="geometry" />
        </mxCell>
        <mxCell id="FH-egheK_HizLAxa6WL1-58" value="Review Application" style="rounded=1;whiteSpace=wrap;html=1;" parent="77e6c97f196da883-3" vertex="1">
          <mxGeometry x="20" y="250" width="120" height="60" as="geometry" />
        </mxCell>
        <mxCell id="FH-egheK_HizLAxa6WL1-68" value="Yes" style="edgeStyle=orthogonalEdgeStyle;rounded=0;orthogonalLoop=1;jettySize=auto;html=1;" parent="77e6c97f196da883-3" source="FH-egheK_HizLAxa6WL1-61" target="FH-egheK_HizLAxa6WL1-67" edge="1">
          <mxGeometry relative="1" as="geometry" />
        </mxCell>
        <mxCell id="FH-egheK_HizLAxa6WL1-61" value="Accepted" style="rhombus;whiteSpace=wrap;html=1;rounded=1;" parent="77e6c97f196da883-3" vertex="1">
          <mxGeometry x="40" y="380" width="80" height="80" as="geometry" />
        </mxCell>
        <mxCell id="FH-egheK_HizLAxa6WL1-67" value="Assign Advisor, Supervisor" style="whiteSpace=wrap;html=1;rounded=1;" parent="77e6c97f196da883-3" vertex="1">
          <mxGeometry x="20" y="524" width="120" height="60" as="geometry" />
        </mxCell>
        <mxCell id="77e6c97f196da883-4" value="System" style="swimlane;html=1;startSize=20;" parent="77e6c97f196da883-1" vertex="1">
          <mxGeometry x="320" y="20" width="160" height="600" as="geometry" />
        </mxCell>
        <mxCell id="FH-egheK_HizLAxa6WL1-63" value="Notify student about rejection" style="whiteSpace=wrap;html=1;rounded=1;" parent="77e6c97f196da883-4" vertex="1">
          <mxGeometry x="20" y="390" width="120" height="60" as="geometry" />
        </mxCell>
        <mxCell id="FH-egheK_HizLAxa6WL1-71" value="Notify student about thesis and advisor" style="whiteSpace=wrap;html=1;rounded=1;" parent="77e6c97f196da883-4" vertex="1">
          <mxGeometry x="20" y="524" width="120" height="60" as="geometry" />
        </mxCell>
        <mxCell id="FH-egheK_HizLAxa6WL1-57" value="" style="edgeStyle=orthogonalEdgeStyle;rounded=0;orthogonalLoop=1;jettySize=auto;html=1;" parent="77e6c97f196da883-1" source="FH-egheK_HizLAxa6WL1-54" target="FH-egheK_HizLAxa6WL1-56" edge="1">
          <mxGeometry relative="1" as="geometry" />
        </mxCell>
        <mxCell id="FH-egheK_HizLAxa6WL1-60" style="edgeStyle=orthogonalEdgeStyle;rounded=0;orthogonalLoop=1;jettySize=auto;html=1;exitX=0.5;exitY=1;exitDx=0;exitDy=0;entryX=0;entryY=0.5;entryDx=0;entryDy=0;" parent="77e6c97f196da883-1" source="FH-egheK_HizLAxa6WL1-56" target="FH-egheK_HizLAxa6WL1-58" edge="1">
          <mxGeometry relative="1" as="geometry" />
        </mxCell>
        <mxCell id="FH-egheK_HizLAxa6WL1-64" value="" style="edgeStyle=orthogonalEdgeStyle;rounded=0;orthogonalLoop=1;jettySize=auto;html=1;" parent="77e6c97f196da883-1" source="FH-egheK_HizLAxa6WL1-61" target="FH-egheK_HizLAxa6WL1-63" edge="1">
          <mxGeometry relative="1" as="geometry" />
        </mxCell>
        <mxCell id="FH-egheK_HizLAxa6WL1-66" value="No" style="edgeLabel;html=1;align=center;verticalAlign=middle;resizable=0;points=[];" parent="FH-egheK_HizLAxa6WL1-64" vertex="1" connectable="0">
          <mxGeometry x="-0.8333" relative="1" as="geometry">
            <mxPoint x="10" as="offset" />
          </mxGeometry>
        </mxCell>
        <mxCell id="FH-egheK_HizLAxa6WL1-72" value="" style="edgeStyle=orthogonalEdgeStyle;rounded=0;orthogonalLoop=1;jettySize=auto;html=1;" parent="77e6c97f196da883-1" source="FH-egheK_HizLAxa6WL1-67" target="FH-egheK_HizLAxa6WL1-71" edge="1">
          <mxGeometry relative="1" as="geometry" />
        </mxCell>
      </root>
    </mxGraphModel>
  </diagram>
</mxfile>
